<?xml version="1.0" encoding="utf-8"?><svg viewBox="0 0 18 18" xmlns="http://www.w3.org/2000/svg" xmlns:xlink="http://www.w3.org/1999/xlink"><style>:root>svg{display:none}:root>svg:target{display:block}</style><svg viewBox="0 0 17 17" id="cart" xmlns="http://www.w3.org/2000/svg"><path d="M2.606 2H0V0h4.394l.449 4H16v5.938L3.77 12.37 2.605 2zM15.5 17a1.5 1.5 0 110-3 1.5 1.5 0 010 3zm-10 0a1.5 1.5 0 110-3 1.5 1.5 0 010 3z"/></svg><svg viewBox="0 0 18 18" id="round" xmlns="http://www.w3.org/2000/svg"><path d="M0 9a9 9 0 1118 0A9 9 0 010 9z"/><path d="M11.465 9.467v1.192c0 .641-.057 1.182-.171 1.622-.115.44-.28.795-.495 1.064a1.88 1.88 0 01-.778.585A2.778 2.778 0 019 14.107c-.3 0-.578-.037-.833-.112a1.977 1.977 0 01-.687-.36 2.183 2.183 0 01-.516-.655 3.516 3.516 0 01-.327-.978 7.045 7.045 0 01-.113-1.343V9.467c0-.641.057-1.178.172-1.612.118-.433.284-.78.5-1.042.214-.264.472-.454.773-.569a2.878 2.878 0 011.02-.172c.305 0 .584.038.838.113a1.892 1.892 0 011.198.983c.143.261.252.582.327.961.076.38.113.826.113 1.338zm-.999 1.353V9.3c0-.35-.021-.659-.064-.924a2.903 2.903 0 00-.177-.687 1.36 1.36 0 00-.301-.462 1.062 1.062 0 00-.414-.258 1.486 1.486 0 00-.52-.086 1.41 1.41 0 00-.63.135 1.13 1.13 0 00-.461.413 2.23 2.23 0 00-.28.747A5.574 5.574 0 007.524 9.3v1.52c0 .351.02.661.059.93.043.268.106.5.188.698.082.193.183.352.3.478.119.125.255.218.409.28.158.056.331.085.521.085.243 0 .457-.046.64-.14.182-.093.334-.238.456-.435.125-.2.218-.456.279-.768a6.03 6.03 0 00.091-1.128z"/></svg></svg>